<svg xmlns="http://www.w3.org/2000/svg" viewBox="0 0 64 64">
  <defs>
    <linearGradient id="bg" x1="0%" y1="0%" x2="100%" y2="100%">
      <stop offset="0%" style="stop-color:#667eea;stop-opacity:1" />
      <stop offset="100%" style="stop-color:#764ba2;stop-opacity:1" />
    </linearGradient>
  </defs>
  <rect width="64" height="64" rx="14" fill="url(#bg)"/>
  <!-- Keyboard icon -->
  <rect x="10" y="20" width="44" height="28" rx="4" fill="none" stroke="white" stroke-width="2.5"/>
  <!-- Key rows -->
  <rect x="14" y="24" width="6" height="5" rx="1" fill="white" opacity="0.9"/>
  <rect x="22" y="24" width="6" height="5" rx="1" fill="white" opacity="0.9"/>
  <rect x="30" y="24" width="6" height="5" rx="1" fill="white" opacity="0.9"/>
  <rect x="38" y="24" width="6" height="5" rx="1" fill="white" opacity="0.9"/>
  <rect x="46" y="24" width="6" height="5" rx="1" fill="white" opacity="0.9"/>
  <rect x="14" y="31" width="6" height="5" rx="1" fill="white" opacity="0.7"/>
  <rect x="22" y="31" width="6" height="5" rx="1" fill="white" opacity="0.7"/>
  <rect x="30" y="31" width="6" height="5" rx="1" fill="white" opacity="0.7"/>
  <rect x="38" y="31" width="6" height="5" rx="1" fill="white" opacity="0.7"/>
  <rect x="46" y="31" width="6" height="5" rx="1" fill="white" opacity="0.7"/>
  <!-- Space bar -->
  <rect x="18" y="38" width="28" height="5" rx="1.5" fill="white" opacity="0.6"/>
  <!-- Magic sparkle -->
  <circle cx="52" cy="14" r="2" fill="#FFD700"/>
  <line x1="52" y1="9" x2="52" y2="19" stroke="#FFD700" stroke-width="1.5" stroke-linecap="round"/>
  <line x1="47" y1="14" x2="57" y2="14" stroke="#FFD700" stroke-width="1.5" stroke-linecap="round"/>
</svg>
